<svg width="90" height="124" viewBox="0 0 90 124" fill="none" xmlns="http://www.w3.org/2000/svg">
<g id="a" clip-path="url(#clip0_215_196)">
<g id="Group">
<path id="Vector" d="M44.6633 111.521C53.6643 111.521 61.3033 109.356 67.5804 102.982C73.8575 96.6031 76.9935 89.0001 76.9935 80.1679V41.4397C76.9935 37.059 78.9284 33.4978 83.3962 33.4675C87.8993 33.4371 89.8995 37.0034 89.9095 41.4246L90 80.1882C89.0702 94.2054 88.5425 101.024 77.8328 111.551C67.4145 121.79 59.3835 122.963 44.6633 124" fill="#30358C"/>
<path id="Vector_2" d="M44.9196 124C30.335 122.968 22.3744 121.79 12.0516 111.551C1.44237 101.024 0.924726 94.2054 0 80.1882L0.0904624 41.4246C0.100514 37.0085 2.08063 33.4371 6.54345 33.4675C10.9711 33.4978 12.8859 37.059 12.8859 41.4397V80.1679C12.8859 89.0001 15.9968 96.6031 22.2135 102.982C28.4303 109.361 35.999 111.521 44.9196 111.521" fill="#30358C"/>
<path id="Vector_3" d="M60.0017 59.5594C60.0017 55.381 58.5392 51.7591 55.6193 48.6886C52.6994 45.6181 49.1613 44.0853 45.0101 44.0853C40.8589 44.0853 37.2605 45.6079 34.3355 48.6582C31.4106 51.7085 29.9531 55.3406 29.9531 59.5594V79.7581C29.9531 82.6769 27.6112 85.0443 24.7113 85.0595H24.5706C21.6507 85.0747 19.2786 82.6972 19.2786 79.7581V59.5594C19.2786 52.4825 21.7964 46.4375 26.8372 41.4296C31.878 36.4216 37.9339 33.9126 45.0101 33.9126C52.0862 33.9126 58.0769 36.4166 63.1176 41.4296C68.1584 46.4375 70.6763 52.4825 70.6763 59.5594V79.7581C70.6763 82.6972 68.3041 85.0747 65.3842 85.0595H65.2435C62.3437 85.0443 60.0017 82.6769 60.0017 79.7581V59.5594Z" fill="#F3C623"/>
<path id="Vector_4" d="M59.3533 68.8521L50.1563 71.1284C46.5077 72.0339 42.6932 72.0137 39.0496 71.0728L30.4607 68.8521C30.3652 68.8268 30.2647 68.8167 30.1642 68.8116C27.7368 68.7307 25.7918 66.7225 25.7918 64.2589C25.7918 61.8663 27.6262 59.9035 29.9531 59.7164C30.1943 59.6961 30.4355 59.7316 30.6718 59.7923L40.0296 62.2102C43.0249 62.9842 46.171 62.9994 49.1763 62.2558L59.1724 59.7821C59.3986 59.7265 59.6298 59.6911 59.866 59.7113C62.2029 59.8934 64.0423 61.8561 64.0423 64.2539C64.0423 66.7123 62.1024 68.7206 59.68 68.8066C59.5745 68.8066 59.4639 68.8218 59.3584 68.847L59.3533 68.8521Z" fill="#F3C623"/>
</g>
<g id="Group_2">
<path id="Vector_5" d="M12.3632 10.5471C11.745 9.02949 11.1671 7.7598 10.6293 6.72786C10.2926 6.08037 9.35784 6.11072 9.07138 6.7835L3.5381 19.7587C3.4024 20.0773 3.09081 20.2847 2.74404 20.2847H1.48762C0.869459 20.2847 0.452327 19.6474 0.693559 19.0758L7.08121 4.10753C7.30234 3.5865 6.98069 2.97948 6.41782 2.9036C6.19166 2.87325 5.95545 2.85808 5.70417 2.85808C5.50817 2.85808 5.30211 2.86819 5.08098 2.88843C4.47288 2.94407 3.99041 2.38257 4.15626 1.79072L4.4578 0.733488C4.54826 0.419859 4.80457 0.182107 5.12119 0.116346C5.50817 0.0404683 5.88509 0 6.24192 0C7.83506 0 9.20205 0.455269 10.3379 1.37086C11.4737 2.28646 12.7301 4.1733 14.1071 7.04655C15.3937 9.72757 16.9718 13.7542 18.8463 19.1314C19.0423 19.698 18.6252 20.2898 18.0322 20.2898H16.4893C16.1174 20.2898 15.7907 20.0521 15.6701 19.698C14.3785 15.8636 13.2729 12.8183 12.3532 10.5521L12.3632 10.5471Z" fill="#010101"/>
<path id="Vector_6" d="M22.8417 19.415V1.58866C22.8417 1.1081 23.2287 0.718589 23.7062 0.718589H24.9726C25.4501 0.718589 25.837 1.1081 25.837 1.58866V5.9643C25.837 6.44486 26.224 6.83436 26.7015 6.83436H29.7872C30.134 6.83436 30.4506 6.62191 30.5813 6.29816C31.2799 4.55802 32.3755 3.15175 33.8832 2.06416C35.5366 0.870345 37.4414 0.273438 39.5923 0.273438C41.487 0.273438 43.1807 0.713531 44.6733 1.59878C46.1659 2.48402 47.3369 3.70313 48.1863 5.2561C49.0356 6.80907 49.4578 8.56439 49.4578 10.5069C49.4578 12.4493 49.0306 14.1743 48.1712 15.7273C47.3118 17.2803 46.1308 18.5044 44.6281 19.3998C43.1204 20.2901 41.4418 20.7403 39.5873 20.7403C37.7328 20.7403 36.0291 20.3002 34.5365 19.415C33.0439 18.5297 31.8729 17.3207 31.0386 15.7728C30.1993 14.23 29.7822 12.4848 29.7822 10.5372V10.5271C29.7822 10.0516 29.4053 9.66715 28.9329 9.66715H26.7015C26.224 9.66715 25.837 10.0567 25.837 10.5372V19.4251C25.837 19.9056 25.4501 20.2951 24.9726 20.2951H23.7062C23.2287 20.2951 22.8417 19.9056 22.8417 19.4251V19.415ZM33.6972 14.3514C34.2752 15.4744 35.0793 16.3545 36.1045 16.9869C37.1298 17.6192 38.2907 17.9328 39.5873 17.9328C40.8839 17.9328 42.0449 17.6192 43.0701 16.9869C44.0954 16.3545 44.8995 15.4794 45.4774 14.3514C46.0554 13.2284 46.3469 11.9435 46.3469 10.4967C46.3469 9.05 46.0554 7.7702 45.4774 6.64214C44.8995 5.51914 44.0954 4.63896 43.0701 4.00664C42.0449 3.37432 40.8839 3.06069 39.5873 3.06069C38.2907 3.06069 37.1298 3.37432 36.1045 4.00664C35.0793 4.63896 34.2752 5.51914 33.6972 6.64214C33.1193 7.76514 32.8278 9.05 32.8278 10.4967C32.8278 11.9435 33.1142 13.2233 33.6972 14.3514Z" fill="#010101"/>
<path id="Vector_7" d="M51.5233 26.3046H50.3172C49.8397 26.3046 49.4528 25.9151 49.4528 25.4345V18.3829C49.4528 17.9023 49.8397 17.5128 50.3172 17.5128H50.9504C51.2972 17.5128 51.6088 17.3054 51.7445 16.9868L57.2275 4.10265C57.4486 3.58162 57.127 2.97966 56.5641 2.89872C56.338 2.86837 56.1017 2.85319 55.8505 2.85319C55.6545 2.85319 55.4484 2.86331 55.2273 2.88354C54.6192 2.93919 54.1367 2.37769 54.3025 1.78584L54.6041 0.728606C54.6946 0.414976 54.9509 0.177225 55.2675 0.111464C55.6545 0.0355855 56.0314 -0.00488281 56.3882 -0.00488281C57.9009 -0.00488281 59.2026 0.394742 60.2881 1.19905C61.3737 2.00336 62.5497 3.64738 63.8162 6.13619C65.0324 8.52887 66.5049 12.1306 68.2287 16.9362C68.3544 17.2801 68.676 17.5128 69.0429 17.5128H69.9978C70.4752 17.5128 70.8622 17.9023 70.8622 18.3829V25.4345C70.8622 25.9151 70.4752 26.3046 69.9978 26.3046H68.7916C68.3142 26.3046 67.9272 25.9151 67.9272 25.4345V21.1499C67.9272 20.6694 67.5402 20.2799 67.0628 20.2799H53.2371C52.7597 20.2799 52.3727 20.6694 52.3727 21.1499V25.4345C52.3727 25.9151 51.9857 26.3046 51.5083 26.3046H51.5233ZM63.9066 17.5179C64.4997 17.5179 64.9168 16.921 64.7208 16.3595C63.7709 13.6582 62.9216 11.4426 62.1778 9.70751C61.6702 8.52382 61.1928 7.50705 60.7354 6.65216C60.3987 6.00972 59.469 6.05525 59.1825 6.72298L55.0815 16.3089C54.8353 16.8805 55.2524 17.5179 55.8756 17.5179H63.9016H63.9066Z" fill="#010101"/>
<path id="Vector_8" d="M73.556 19.4146V1.58833C73.556 1.10777 73.9429 0.718262 74.4204 0.718262H75.6869C76.1643 0.718262 76.5513 1.10777 76.5513 1.58833V6.68228C76.5513 7.29942 77.1745 7.71928 77.7373 7.48659L86.477 3.88997C86.8037 3.75844 87.0148 3.43976 87.0148 3.08566V1.58833C87.0148 1.10777 87.4017 0.718262 87.8792 0.718262H89.1457C89.6231 0.718262 90.0101 1.10777 90.0101 1.58833V19.4146C90.0101 19.8952 89.6231 20.2847 89.1457 20.2847H87.8792C87.4017 20.2847 87.0148 19.8952 87.0148 19.4146V8.00256C87.0148 7.38542 86.3916 6.96556 85.8287 7.19825L77.089 10.7949C76.7624 10.9264 76.5513 11.2451 76.5513 11.5992V19.4197C76.5513 19.9002 76.1643 20.2898 75.6869 20.2898H74.4204C73.9429 20.2898 73.556 19.9002 73.556 19.4197V19.4146Z" fill="#010101"/>
</g>
</g>
<defs>
<clipPath id="clip0_215_196">
<rect width="90" height="124" fill="white"/>
</clipPath>
</defs>
</svg>
