<svg width="58" height="74" viewBox="0 0 58 74" fill="none" xmlns="http://www.w3.org/2000/svg">
<g id="Group 2">
<path id="Vector 2" d="M25 4.7196H49L43 14.9754L49 25.7196H25" stroke="#F3C623" stroke-width="8" stroke-linecap="round" stroke-linejoin="round"/>
<path id="Layer_2" d="M47.125 66.1281H3.625C1.62328 66.1281 0 67.7465 0 69.7463C0 71.7461 1.62328 73.3646 3.625 73.3646H47.125C53.1218 73.3646 58 68.4955 58 62.5099C58 56.5242 53.1218 51.6552 47.125 51.6552H18.125C16.1265 51.6552 14.5 50.0335 14.5 48.037C14.5 46.0404 16.1265 44.4187 18.125 44.4187H25.375C27.3767 44.4187 29 42.8003 29 40.8005V29.9458V1H25.375C23.3733 1 21.75 2.61843 21.75 4.61823V26.3276V37.1823H18.125C12.1282 37.1823 7.25 42.0513 7.25 48.037C7.25 54.0226 12.1282 58.8916 18.125 58.8916H47.125C49.1235 58.8916 50.75 60.5133 50.75 62.5099C50.75 64.5064 49.1235 66.1281 47.125 66.1281Z" fill="#F3C623"/>
<path id="Vector 3" d="M25 39.7196V4.7196" stroke="#30358C" stroke-width="8" stroke-linecap="round" stroke-linejoin="round"/>
</g>
</svg>
