<svg width="18" height="24" viewBox="0 0 18 24" fill="none" xmlns="http://www.w3.org/2000/svg">
<g id="Layer 6">
<path id="Subtract" fill-rule="evenodd" clip-rule="evenodd" d="M7.91499 23.7235C8.24968 23.9003 8.62154 23.995 8.99998 24C9.37843 23.995 9.75028 23.9003 10.085 23.7235C10.4197 23.5468 10.7077 23.2932 10.9252 22.9836C10.9314 22.9753 10.9406 22.9632 10.9526 22.9473C11.4996 22.2224 17.9686 13.6491 17.9686 8.96861C17.9686 6.58999 17.0237 4.30879 15.3417 2.62685C13.6598 0.944904 11.3786 0 8.99998 0C6.62136 0 4.34016 0.944904 2.65822 2.62685C0.976276 4.30879 0.0313721 6.58999 0.0313721 8.96861C0.0313721 13.6429 6.51569 22.2422 7.04929 22.9498C7.06037 22.9645 7.06888 22.9758 7.07472 22.9836C7.29231 23.2932 7.58029 23.5468 7.91499 23.7235ZM6.67473 12.4485C7.36301 12.9084 8.1722 13.1539 8.99999 13.1539C10.11 13.1539 11.1746 12.713 11.9595 11.928C12.7444 11.1431 13.1853 10.0786 13.1853 8.96856C13.1853 8.14077 12.9399 7.33158 12.48 6.6433C12.0201 5.95502 11.3664 5.41858 10.6017 5.1018C9.83688 4.78502 8.99535 4.70213 8.18347 4.86363C7.37159 5.02512 6.62583 5.42373 6.0405 6.00907C5.45517 6.5944 5.05655 7.34016 4.89506 8.15203C4.73357 8.96391 4.81645 9.80545 5.13323 10.5702C5.45001 11.335 5.98646 11.9887 6.67473 12.4485Z" fill="#30358C"/>
</g>
</svg>
