<svg width="51" height="70" viewBox="0 0 51 70" fill="none" xmlns="http://www.w3.org/2000/svg">
<g id="a" clip-path="url(#clip0_15_13)">
<g id="Group">
<path id="Vector" d="M25.3092 62.9552C30.4098 62.9552 34.7386 61.733 38.2956 58.1349C41.8526 54.5339 43.6297 50.2419 43.6297 45.256V23.3933C43.6297 20.9203 44.7261 18.91 47.2579 18.8928C49.8096 18.8757 50.9431 20.8889 50.9487 23.3847L51 45.2674C50.4732 53.1804 50.1741 57.0297 44.1053 62.9723C38.2016 68.7521 33.6507 69.4146 25.3092 70" fill="#30358C"/>
<path id="Vector_2" d="M25.4544 70C17.1899 69.4175 12.6788 68.7521 6.82924 62.9723C0.817344 57.0297 0.524012 53.1804 0 45.2674L0.051262 23.3847C0.0569578 20.8918 1.17903 18.8757 3.70795 18.8928C6.21694 18.91 7.30199 20.9203 7.30199 23.3933V45.256C7.30199 50.2419 9.06483 54.5339 12.5877 58.1349C16.1105 61.7358 20.3994 62.9552 25.4544 62.9552" fill="#30358C"/>
<path id="Vector_3" d="M34.0009 33.6222C34.0009 31.2634 33.1722 29.2188 31.5176 27.4854C29.863 25.7521 27.858 24.8868 25.5057 24.8868C23.1533 24.8868 21.1142 25.7463 19.4568 27.4683C17.7993 29.1902 16.9734 31.2406 16.9734 33.6222V45.0247C16.9734 46.6724 15.6463 48.0088 14.0031 48.0174H13.9233C12.2687 48.0259 10.9245 46.6838 10.9245 45.0247V33.6222C10.9245 29.6271 12.3513 26.2147 15.2077 23.3876C18.0642 20.5605 21.4959 19.1441 25.5057 19.1441C29.5155 19.1441 32.9102 20.5577 35.7666 23.3876C38.6231 26.2147 40.0499 29.6271 40.0499 33.6222V45.0247C40.0499 46.6838 38.7057 48.0259 37.051 48.0174H36.9713C35.3281 48.0088 34.0009 46.6724 34.0009 45.0247V33.6222Z" fill="#F3C623"/>
<path id="Vector_4" d="M33.6336 38.868L28.4219 40.153C26.3544 40.6641 24.1928 40.6527 22.1281 40.1216L17.261 38.868C17.2069 38.8537 17.15 38.848 17.093 38.8451C15.7175 38.7994 14.6154 37.6657 14.6154 36.275C14.6154 34.9243 15.6548 33.8164 16.9734 33.7107C17.1101 33.6993 17.2468 33.7193 17.3807 33.7535L22.6834 35.1185C24.3808 35.5554 26.1635 35.564 27.8666 35.1442L33.531 33.7478C33.6592 33.7164 33.7902 33.6964 33.924 33.7078C35.2483 33.8106 36.2906 34.9186 36.2906 36.2722C36.2906 37.66 35.1914 38.7937 33.8187 38.8423C33.7589 38.8423 33.6962 38.8508 33.6364 38.8651L33.6336 38.868Z" fill="#F3C623"/>
</g>
<g id="Group_2">
<path id="Vector_5" d="M7.00583 5.95398C6.65554 5.0973 6.32803 4.38053 6.02331 3.79798C5.8325 3.43246 5.30279 3.4496 5.14046 3.8294L2.00494 11.1541C1.92805 11.334 1.75148 11.4511 1.55497 11.4511H0.843C0.492709 11.4511 0.256335 11.0913 0.393033 10.7686L4.0127 2.31877C4.13801 2.02464 3.95574 1.68196 3.63678 1.63913C3.50862 1.622 3.37477 1.61343 3.23238 1.61343C3.12131 1.61343 3.00455 1.61914 2.87924 1.63056C2.53465 1.66198 2.26125 1.345 2.35523 1.01089L2.5261 0.414066C2.57736 0.237017 2.72261 0.102803 2.90202 0.0656794C3.12131 0.022845 3.3349 0 3.5371 0C4.43988 0 5.21451 0.257006 5.85813 0.773875C6.50176 1.29074 7.21373 2.35589 7.99405 3.97789C8.72311 5.49137 9.61735 7.76445 10.6796 10.8C10.7907 11.1198 10.5543 11.4539 10.2183 11.4539H9.34395C9.13321 11.4539 8.94809 11.3197 8.87974 11.1198C8.14784 8.95525 7.5213 7.23616 7.00014 5.95684L7.00583 5.95398Z" fill="#010101"/>
<path id="Vector_6" d="M12.9437 10.9599V0.896668C12.9437 0.625384 13.163 0.405501 13.4335 0.405501H14.1512C14.4217 0.405501 14.641 0.625384 14.641 0.896668V3.36679C14.641 3.63807 14.8603 3.85795 15.1308 3.85795H16.8794C17.076 3.85795 17.2554 3.73802 17.3294 3.55526C17.7253 2.57292 18.3461 1.77906 19.2005 1.1651C20.1374 0.491169 21.2168 0.154205 22.4357 0.154205C23.5093 0.154205 24.4691 0.402645 25.3149 0.90238C26.1607 1.40211 26.8243 2.09032 27.3056 2.967C27.7869 3.84368 28.0261 4.83458 28.0261 5.93114C28.0261 7.0277 27.784 8.00147 27.297 8.87815C26.81 9.75482 26.1408 10.4459 25.2893 10.9513C24.4349 11.4539 23.4837 11.7081 22.4328 11.7081C21.382 11.7081 20.4165 11.4596 19.5707 10.9599C18.7249 10.4602 18.0613 9.77767 17.5886 8.90385C17.113 8.03288 16.8766 7.04769 16.8766 5.94827V5.94256C16.8766 5.67413 16.663 5.45711 16.3953 5.45711H15.1308C14.8603 5.45711 14.641 5.67699 14.641 5.94827V10.9656C14.641 11.2369 14.4217 11.4568 14.1512 11.4568H13.4335C13.163 11.4568 12.9437 11.2369 12.9437 10.9656V10.9599ZM19.0951 8.10142C19.4226 8.73537 19.8783 9.23225 20.4592 9.5892C21.0402 9.94615 21.6981 10.1232 22.4328 10.1232C23.1676 10.1232 23.8254 9.94615 24.4064 9.5892C24.9874 9.23225 25.4431 8.73822 25.7706 8.10142C26.0981 7.46747 26.2632 6.74214 26.2632 5.92543C26.2632 5.10872 26.0981 4.38625 25.7706 3.74944C25.4431 3.11549 24.9874 2.61861 24.4064 2.26166C23.8254 1.90471 23.1676 1.72766 22.4328 1.72766C21.6981 1.72766 21.0402 1.90471 20.4592 2.26166C19.8783 2.61861 19.4226 3.11549 19.0951 3.74944C18.7676 4.38339 18.6024 5.10872 18.6024 5.92543C18.6024 6.74214 18.7648 7.46461 19.0951 8.10142Z" fill="#010101"/>
<path id="Vector_7" d="M29.1966 14.8492H28.5131C28.2425 14.8492 28.0233 14.6294 28.0233 14.3581V10.3773C28.0233 10.1061 28.2425 9.88617 28.5131 9.88617H28.8719C29.0684 9.88617 29.245 9.76909 29.3219 9.58918L32.4289 2.3159C32.5542 2.02177 32.372 1.68195 32.053 1.63626C31.9249 1.61913 31.791 1.61056 31.6486 1.61056C31.5375 1.61056 31.4208 1.61627 31.2955 1.62769C30.9509 1.65911 30.6775 1.34213 30.7715 1.00802L30.9423 0.411197C30.9936 0.234148 31.1388 0.0999339 31.3183 0.0628108C31.5375 0.0199764 31.7511 -0.00286865 31.9533 -0.00286865C32.8106 -0.00286865 33.5482 0.222726 34.1633 0.676771C34.7784 1.13082 35.4449 2.05889 36.1625 3.46386C36.8517 4.81458 37.6861 6.84778 38.663 9.56063C38.7342 9.75481 38.9164 9.88617 39.1243 9.88617H39.6654C39.936 9.88617 40.1553 10.1061 40.1553 10.3773V14.3581C40.1553 14.6294 39.936 14.8492 39.6654 14.8492H38.9819C38.7114 14.8492 38.4921 14.6294 38.4921 14.3581V11.9394C38.4921 11.6681 38.2728 11.4482 38.0023 11.4482H30.1677C29.8972 11.4482 29.6779 11.6681 29.6779 11.9394V14.3581C29.6779 14.6294 29.4586 14.8492 29.188 14.8492H29.1966ZM36.2138 9.88902C36.5498 9.88902 36.7862 9.55206 36.6751 9.23509C36.1369 7.71018 35.6556 6.45942 35.2341 5.47994C34.9465 4.81172 34.6759 4.23774 34.4168 3.75514C34.226 3.39247 33.6991 3.41817 33.5368 3.79512L31.2129 9.20653C31.0733 9.52922 31.3097 9.88902 31.6629 9.88902H36.2109H36.2138Z" fill="#010101"/>
<path id="Vector_8" d="M41.6818 10.9599V0.896655C41.6818 0.62537 41.9011 0.405487 42.1716 0.405487H42.8893C43.1598 0.405487 43.3791 0.62537 43.3791 0.896655V3.77227C43.3791 4.12066 43.7322 4.35768 44.0512 4.22632L49.0037 2.19597C49.1888 2.12172 49.3084 1.94181 49.3084 1.74192V0.896655C49.3084 0.62537 49.5277 0.405487 49.7982 0.405487H50.5159C50.7865 0.405487 51.0058 0.62537 51.0058 0.896655V10.9599C51.0058 11.2312 50.7865 11.4511 50.5159 11.4511H49.7982C49.5277 11.4511 49.3084 11.2312 49.3084 10.9599V4.51759C49.3084 4.1692 48.9553 3.93219 48.6363 4.06355L43.6838 6.0939C43.4987 6.16814 43.3791 6.34805 43.3791 6.54794V10.9627C43.3791 11.234 43.1598 11.4539 42.8893 11.4539H42.1716C41.9011 11.4539 41.6818 11.234 41.6818 10.9627V10.9599Z" fill="#010101"/>
</g>
</g>
<defs>
<clipPath id="clip0_15_13">
<rect width="51" height="70" fill="white"/>
</clipPath>
</defs>
</svg>
