<svg xmlns="http://www.w3.org/2000/svg" viewBox="0 0 281.1 280.84"><defs><style>.a{fill:#fff;}.b,.e,.k{fill:#f15623;}.b,.d,.f,.h{opacity:0.3;}.c,.h,.j{fill:#90af3d;}.c,.e,.g,.i{opacity:0.5;}.d,.g,.m{fill:#78cdd1;}.f,.i,.l{fill:#5d5b8c;}.n{fill:#bcbec0;}</style></defs><title>WWO Icon_Flower_circle_A</title><path class="a" d="M211.21,297.18c18.42-19.5,4.15-44.41,1.44-49.47s-17-32-29.61-50V310C192.68,309.88,202.82,306.06,211.21,297.18Z" transform="translate(-42.66 -54.45)"/><path class="a" d="M147.66,259.45c-3.61,12.1-4.51,23.11,6.86,37.73,6.2,8,17,13,28.53,12.85V197.7l-10.83,16.61S151.27,247.35,147.66,259.45Z" transform="translate(-42.66 -54.45)"/><path class="a" d="M284.82,167.26c-19.5-18.42-44.41-4.15-49.47-1.44s-32,17-50,29.61H297.67C297.52,185.79,293.7,175.65,284.82,167.26Z" transform="translate(-42.66 -54.45)"/><path class="a" d="M247.09,230.81c12.1,3.61,23.11,4.51,37.73-6.86,8-6.2,13-17,12.85-28.53H185.34L202,206.26S235,227.2,247.09,230.81Z" transform="translate(-42.66 -54.45)"/><path class="a" d="M154.87,93.64c-18.42,19.5-4.15,44.41-1.44,49.47s17,32,29.61,50V80.78C173.4,80.94,163.26,84.76,154.87,93.64Z" transform="translate(-42.66 -54.45)"/><path class="a" d="M218.43,131.37c3.61-12.1,4.51-23.11-6.86-37.73-6.2-8-17-13-28.53-12.85V193.12l10.83-16.61S214.82,143.47,218.43,131.37Z" transform="translate(-42.66 -54.45)"/><path class="a" d="M81.27,223.59c19.5,18.42,44.41,4.15,49.47,1.44s32-17,50-29.61H68.41C68.57,205.06,72.39,215.21,81.27,223.59Z" transform="translate(-42.66 -54.45)"/><path class="a" d="M119,160c-12.1-3.61-23.11-4.51-37.73,6.86-8,6.2-13,17-12.85,28.53H180.75l-16.61-10.83S131.1,163.63,119,160Z" transform="translate(-42.66 -54.45)"/><path class="b" d="M211.21,297.18c18.42-19.5,4.15-44.41,1.44-49.47s-17-32-29.61-50V310C192.68,309.88,202.82,306.06,211.21,297.18Z" transform="translate(-42.66 -54.45)"/><path class="c" d="M147.66,259.45c-3.61,12.1-4.51,23.11,6.86,37.73,6.2,8,17,13,28.53,12.85V197.7l-10.83,16.61S151.27,247.35,147.66,259.45Z" transform="translate(-42.66 -54.45)"/><path class="d" d="M284.82,167.26c-19.5-18.42-44.41-4.15-49.47-1.44s-32,17-50,29.61H297.67C297.52,185.79,293.7,175.65,284.82,167.26Z" transform="translate(-42.66 -54.45)"/><path class="e" d="M247.09,230.81c12.1,3.61,23.11,4.51,37.73-6.86,8-6.2,13-17,12.85-28.53H185.34L202,206.26S235,227.2,247.09,230.81Z" transform="translate(-42.66 -54.45)"/><path class="f" d="M154.87,93.64c-18.42,19.5-4.15,44.41-1.44,49.47s17,32,29.61,50V80.78C173.4,80.94,163.26,84.76,154.87,93.64Z" transform="translate(-42.66 -54.45)"/><path class="g" d="M218.43,131.37c3.61-12.1,4.51-23.11-6.86-37.73-6.2-8-17-13-28.53-12.85V193.12l10.83-16.61S214.82,143.47,218.43,131.37Z" transform="translate(-42.66 -54.45)"/><path class="h" d="M81.27,223.59c19.5,18.42,44.41,4.15,49.47,1.44s32-17,50-29.61H68.41C68.57,205.06,72.39,215.21,81.27,223.59Z" transform="translate(-42.66 -54.45)"/><path class="i" d="M119,160c-12.1-3.61-23.11-4.51-37.73,6.86-8,6.2-13,17-12.85,28.53H180.75l-16.61-10.83S131.1,163.63,119,160Z" transform="translate(-42.66 -54.45)"/><path class="a" d="M130.32,288c26.81-.77,34.34-28.47,36-34s10.6-34.6,14.43-56.3l-79.43,79.43C108.24,283.84,118.11,288.31,130.32,288Z" transform="translate(-42.66 -54.45)"/><path class="a" d="M112.06,216.34c-11.11,6-19.53,13.15-21.83,31.53-1.25,10,2.8,21.24,11.08,29.26l79.43-79.43-19.4,4.09S123.17,210.34,112.06,216.34Z" transform="translate(-42.66 -54.45)"/><path class="j" d="M130.32,288c26.81-.77,34.34-28.47,36-34s10.6-34.6,14.43-56.3l-79.43,79.43C108.24,283.84,118.11,288.31,130.32,288Z" transform="translate(-42.66 -54.45)"/><path class="c" d="M112.06,216.34c-11.11,6-19.53,13.15-21.83,31.53-1.25,10,2.8,21.24,11.08,29.26l79.43-79.43-19.4,4.09S123.17,210.34,112.06,216.34Z" transform="translate(-42.66 -54.45)"/><circle class="a" cx="129.84" cy="248.27" r="29.49" transform="translate(-180.18 110.08) rotate(-45)"/><path class="j" d="M110.8,248.54c-1.56-4.88-.89-10.81-0.82-15.47,0-1.58,1-1.79,2.11-.74,4.59,4.38,10.43,6.09,16.32,7.68a5.76,5.76,0,0,1,.63.77,2,2,0,0,1-.08,2.12C125.11,248.66,116.38,252.81,110.8,248.54Z" transform="translate(-42.66 -54.45)"/><path class="j" d="M145.74,243.91c-0.8,2.86-.71,5.89-1.82,8.72-3.87,9.93-12.27,12.62-21.66,13.63-3.49.38-7,.37-10.47,1.1-1.86.4-2.37-.28-1.86-2,0.92-3.16,3.51-6.26,5.7-8.62a1.48,1.48,0,0,1,1-.84c0.7-.07.51,0.78,1,1.19,6.58,5.55,17,3.62,22.66-4.28,0.94-1.3.22-2.38,0.34-3.57a25.74,25.74,0,0,1,2.28-4.18C143.51,244,144.35,243.2,145.74,243.91Z" transform="translate(-42.66 -54.45)"/><path class="c" d="M115.63,256.74h0c-2.47-2.94-4.67-5.82-5.15-9.69,1.56-1.12,3,.14,4.43.36,5.33,0.79,11.14-2.65,13.5-7.39,3.57,1,6.15.51,8.39,3.14,1.43,2.14,2.28,4.31.25,6.59-6.07-.6-10.63,3.34-15.8,5.41C119.4,255.9,117.67,256.77,115.63,256.74Z" transform="translate(-42.66 -54.45)"/><path class="j" d="M136.14,249.6c1.17-2.07.62-4-.64-5.76,2.72-5.35,7.63-7.79,13-9.51a2.19,2.19,0,0,1,3.07,1.79,9.79,9.79,0,0,0-5.8,7.79c-2,1.43-2.33,3.94-3.82,5.7-1.6,3.9-4.05,6.84-8.48,7.58-1.45.24-2.82,0.25-3.59-1.26a2.85,2.85,0,0,1,.83-3.49C132.2,251,133.78,249.49,136.14,249.6Z" transform="translate(-42.66 -54.45)"/><path class="a" d="M151.54,236.12c-3-1.13-5.06-.77-7.78.94a23.94,23.94,0,0,0-5.57,5.34,3.48,3.48,0,0,1-2.68,1.44,13.49,13.49,0,0,0-7.09-3.83c3.49-.43,4.87-1.92,6.71-3.84a14.47,14.47,0,0,1,9.86-4.57c3.13-.21,5.22,1.64,7.35,3.33C153.47,235.84,152.2,236,151.54,236.12Z" transform="translate(-42.66 -54.45)"/><path class="c" d="M151.54,236.12c-3-1.13-5.06-.77-7.78.94a23.94,23.94,0,0,0-5.57,5.34,3.48,3.48,0,0,1-2.68,1.44,13.49,13.49,0,0,0-7.09-3.83c3.49-.43,4.87-1.92,6.71-3.84a14.47,14.47,0,0,1,9.86-4.57c3.13-.21,5.22,1.64,7.35,3.33C153.47,235.84,152.2,236,151.54,236.12Z" transform="translate(-42.66 -54.45)"/><path class="a" d="M136.14,249.6c-0.85,1.57-2.4,2.35-3.76,3.35-0.75.55-1.76,1.28-1.37,2.29,0.48,1.24,1.69.81,2.57,0.69,3.84-.51,5.71-4.11,8.34-6.33-0.17,5.24-3.6,8.56-7.67,10.53-5.1,2.47-10,2.75-15.34-.13a11.27,11.27,0,0,1-3.28-3.28c4-3.43,9.07-4.84,13.67-7.15,1.23-.62,2.74-0.72,3.87-1.51s0.81-2.41,2.56-1.72C136.94,246.83,136.82,248.21,136.14,249.6Z" transform="translate(-42.66 -54.45)"/><path class="a" d="M204,266.39c6,11.11,13.15,19.53,31.53,21.83,10,1.25,21.24-2.8,29.26-11.08L185.36,197.7l4.09,19.4S198,255.28,204,266.39Z" transform="translate(-42.66 -54.45)"/><path class="k" d="M275.59,248.13c-0.77-26.81-28.47-34.34-34-36s-34.6-10.6-56.3-14.43l79.43,79.43C271.47,270.21,275.94,260.34,275.59,248.13Z" transform="translate(-42.66 -54.45)"/><path class="e" d="M204,266.39c6,11.11,13.15,19.53,31.53,21.83,10,1.25,21.24-2.8,29.26-11.08L185.33,197.7l4.09,19.4S198,255.28,204,266.39Z" transform="translate(-42.66 -54.45)"/><circle class="a" cx="237.58" cy="250.25" r="29.49" transform="translate(-150.03 186.85) rotate(-45)"/><path class="k" d="M220.47,233.75a14.11,14.11,0,0,1,10.73-4.42c4.32,0.14,8.65.06,13,0A14.49,14.49,0,0,1,254,232.7a13,13,0,0,1,4.72,9.94c0.11,5.18.25,10.37,0,15.53-0.41,7.62-5.73,12.75-13.28,13.18-4.86.28-9.74,0-14.61,0.08a14.06,14.06,0,0,1-9.7-3.67,12.91,12.91,0,0,1-4.31-8.83c-0.18-2.3-.11-4.62-0.12-6.93,0-2.92,0-5.85,0-8.77A13.33,13.33,0,0,1,220.47,233.75Zm26.39,7.19c-5-5.24-13.65-4.74-18.56.13A13.18,13.18,0,1,0,247,259.61C252,254.64,252.12,245.77,246.86,240.94Zm5,23.69a20.69,20.69,0,0,0,5.07-8.12c0.4-1.46.32-1.58-1.14-1.62a15.84,15.84,0,0,1-1.82,0c-2-.28-3,0.58-4,2.26-1.24,2-2.82,4.12-4.79,5.09-2.64,1.29-3.2,2.95-2.87,5.44,0,0.24,0,.49,0,0.73,0,1.48.19,1.63,1.6,1.15A20.06,20.06,0,0,0,251.82,264.63Zm-28.23-28.69a29.67,29.67,0,0,0-2.8,3.5,50,50,0,0,0-2.39,5.09c-0.46,1,.06,1.29,1,1.25a15,15,0,0,1,3.1,0c1.56,0.28,2.19-.5,2.66-1.78a9.47,9.47,0,0,1,4.93-5.39c2.75-1.23,3.46-3,3-5.62a5.1,5.1,0,0,1,0-1.09c0.05-.95-0.33-1.13-1.22-0.88A20.67,20.67,0,0,0,223.59,235.93ZM252,236.14a21.08,21.08,0,0,0-8-4.92c-1.72-.53-1.76-0.51-1.78,1.21a20.76,20.76,0,0,1,0,2.19c-0.19,1.62.49,2.53,1.94,3.28a13.27,13.27,0,0,1,6.23,6.41,2.13,2.13,0,0,0,2.4,1.46c1-.09,1.95,0,2.92,0,1.48,0,1.61-.18,1.18-1.59A21.86,21.86,0,0,0,252,236.14ZM223.6,264.77a33.52,33.52,0,0,0,3.43,2.67,26.38,26.38,0,0,0,4.45,2.08c1.39,0.53,1.6.33,1.62-1.12,0-1.22,0-2.44,0-3.65a1.38,1.38,0,0,0-.85-1.38,22.08,22.08,0,0,1-4.4-3.18,37.86,37.86,0,0,1-3.32-4.52,1.41,1.41,0,0,0-.7-0.64c-1.38-.1-2.77-0.15-4.16-0.13s-1.59.32-1.14,1.69A22.12,22.12,0,0,0,223.6,264.77Zm33.73-11.11a1.38,1.38,0,0,0,.2-0.48c0-1.87.06-3.74,0-5.61a1.15,1.15,0,0,0-.8-0.78,37.74,37.74,0,0,0-4.36-.12,1.2,1.2,0,0,0-.81.82,14,14,0,0,1-.06,5.6,1,1,0,0,0,.29.75c1.75,0.05,3.5,0,5.24,0A0.79,0.79,0,0,0,257.33,253.66Zm-39.3.12a2,2,0,0,0,.57.21c1.52,0,3,.06,4.56,0a1.33,1.33,0,0,0,.66-1c0.09-1.8.1-3.61,0.06-5.42a1,1,0,0,0-.62-0.76c-1.39-.07-2.79,0-4.18,0a1.1,1.1,0,0,0-1.32,1.15c0,1.7,0,3.4,0,5.1A3,3,0,0,0,218,253.77Zm23.17-17.4a5.09,5.09,0,0,0,.16-1,35,35,0,0,1-.18-3.79,1.06,1.06,0,0,0-1.28-1.28c-1.57,0-3.14,0-4.72.07a1,1,0,0,0-1.11,1.14c0,1.33,0,2.66,0,4a0.88,0.88,0,0,0,1.15,1c1.62-.08,3.25,0,4.88,0A10.46,10.46,0,0,0,241.19,236.38Zm-7,33.58a1.84,1.84,0,0,0,.57.25c1.93,0,3.86,0,5.78-.06a1.39,1.39,0,0,0,.73-1c0.09-1.33,0-2.66,0-4,0-.77-0.37-1-1.17-0.93a41.73,41.73,0,0,1-5,0c-0.85-.05-1.09.2-1.07,1,0,1.39,0,2.78,0,4.17A3.16,3.16,0,0,0,234.24,270Zm10.59,0.3c7.33,0.54,13.33-6.44,12.85-13.09C255.16,263.54,251,267.92,244.83,270.26Zm-27-27.44a24.61,24.61,0,0,1,12.33-12.33C223.84,230,217.21,236.48,217.82,242.81Zm12.48,27.35c-6-2.34-10-6.58-12.48-12.74C217.13,264,223.77,270.81,230.31,270.17ZM257.75,243a11.69,11.69,0,0,0-3.28-8.48,12.53,12.53,0,0,0-7.16-4.07,2.72,2.72,0,0,0-1,.19,6.29,6.29,0,0,0,.65.79c0.17,0.15.46,0.17,0.66,0.31,2.25,1.63,4.85,2.83,6.37,5.33C255.24,239.1,256.5,241.06,257.75,243Z" transform="translate(-42.66 -54.45)"/><path class="k" d="M251.82,264.63a20.08,20.08,0,0,1-8,4.91c-1.41.49-1.55,0.33-1.6-1.15,0-.24,0-0.49,0-0.73-0.33-2.49.23-4.15,2.87-5.44,2-1,3.56-3.13,4.79-5.09,1.06-1.67,2.09-2.54,4-2.26a15.84,15.84,0,0,0,1.82,0c1.46,0,1.54.17,1.14,1.62A20.71,20.71,0,0,1,251.82,264.63Z" transform="translate(-42.66 -54.45)"/><path class="k" d="M223.59,235.93a20.67,20.67,0,0,1,8.29-4.89c0.9-.25,1.28-0.07,1.22.88a5.1,5.1,0,0,0,0,1.09c0.44,2.66-.27,4.39-3,5.62a9.47,9.47,0,0,0-4.93,5.39c-0.47,1.27-1.1,2.05-2.66,1.78a15,15,0,0,0-3.1,0c-0.94,0-1.46-.23-1-1.25a50,50,0,0,1,2.39-5.09A29.67,29.67,0,0,1,223.59,235.93Z" transform="translate(-42.66 -54.45)"/><path class="k" d="M252,236.14a21.86,21.86,0,0,1,4.91,8c0.43,1.41.3,1.56-1.18,1.59-1,0-2-.07-2.92,0a2.13,2.13,0,0,1-2.4-1.46,13.27,13.27,0,0,0-6.23-6.41c-1.45-.76-2.13-1.67-1.94-3.28a20.76,20.76,0,0,0,0-2.19c0-1.73.07-1.74,1.78-1.21A21.08,21.08,0,0,1,252,236.14Z" transform="translate(-42.66 -54.45)"/><path class="k" d="M223.6,264.77a22.12,22.12,0,0,1-5.06-8.18c-0.45-1.37-.27-1.67,1.14-1.69s2.78,0,4.16.13a1.41,1.41,0,0,1,.7.64,37.86,37.86,0,0,0,3.32,4.52,22.08,22.08,0,0,0,4.4,3.18,1.38,1.38,0,0,1,.85,1.38c0,1.22,0,2.44,0,3.65,0,1.44-.23,1.64-1.62,1.12a26.38,26.38,0,0,1-4.45-2.08A33.52,33.52,0,0,1,223.6,264.77Z" transform="translate(-42.66 -54.45)"/><path class="a" d="M257.33,253.66a0.79,0.79,0,0,1-.3.23c-1.75,0-3.5,0-5.24,0a1,1,0,0,1-.29-0.75,14,14,0,0,0,.06-5.6,1.2,1.2,0,0,1,.81-0.82,37.74,37.74,0,0,1,4.36.12,1.15,1.15,0,0,1,.8.78c0.06,1.87,0,3.74,0,5.61A1.38,1.38,0,0,1,257.33,253.66Z" transform="translate(-42.66 -54.45)"/><path class="a" d="M218,253.77a3,3,0,0,1-.26-0.82c0-1.7,0-3.4,0-5.1a1.1,1.1,0,0,1,1.32-1.15c1.4,0,2.79,0,4.18,0a1,1,0,0,1,.62.76c0,1.81,0,3.62-.06,5.42a1.33,1.33,0,0,1-.66,1c-1.51.1-3,.05-4.56,0A2,2,0,0,1,218,253.77Z" transform="translate(-42.66 -54.45)"/><path class="a" d="M241.19,236.38a10.46,10.46,0,0,1-1.06.12c-1.63,0-3.26-.05-4.88,0a0.88,0.88,0,0,1-1.15-1c0-1.33,0-2.66,0-4a1,1,0,0,1,1.11-1.14c1.57,0,3.14-.09,4.72-0.07a1.06,1.06,0,0,1,1.28,1.28,35,35,0,0,0,.18,3.79A5.09,5.09,0,0,1,241.19,236.38Z" transform="translate(-42.66 -54.45)"/><path class="a" d="M234.24,270a3.16,3.16,0,0,1-.14-0.64c0-1.39,0-2.78,0-4.17,0-.78.22-1,1.07-1a41.73,41.73,0,0,0,5,0c0.8,0,1.16.16,1.17,0.93,0,1.33.06,2.67,0,4a1.39,1.39,0,0,1-.73,1c-1.92.1-3.85,0.07-5.78,0.06A1.84,1.84,0,0,1,234.24,270Z" transform="translate(-42.66 -54.45)"/><path class="a" d="M244.83,270.26c6.22-2.33,10.33-6.71,12.85-13.09C258.16,263.82,252.16,270.8,244.83,270.26Z" transform="translate(-42.66 -54.45)"/><path class="a" d="M217.82,242.81c-0.61-6.34,6-12.78,12.33-12.33A24.61,24.61,0,0,0,217.82,242.81Z" transform="translate(-42.66 -54.45)"/><path class="a" d="M230.31,270.17c-6.54.65-13.17-6.12-12.48-12.74C220.29,263.59,224.34,267.83,230.31,270.17Z" transform="translate(-42.66 -54.45)"/><path class="a" d="M257.75,243c-1.25-2-2.51-3.94-3.73-5.93-1.53-2.5-4.12-3.7-6.37-5.33-0.19-.14-0.48-0.15-0.66-0.31a6.29,6.29,0,0,1-.65-0.79,2.72,2.72,0,0,1,1-.19,12.53,12.53,0,0,1,7.16,4.07A11.69,11.69,0,0,1,257.75,243Z" transform="translate(-42.66 -54.45)"/><path class="a" d="M90.47,142.69c0.77,26.81,28.47,34.34,34,36s34.6,10.6,56.3,14.43l-79.43-79.43C94.59,120.61,90.12,130.48,90.47,142.69Z" transform="translate(-42.66 -54.45)"/><path class="a" d="M162.08,124.43c-6-11.11-13.15-19.53-31.53-21.83-10-1.25-21.24,2.8-29.26,11.08l79.43,79.43-4.09-19.4S168.08,135.54,162.08,124.43Z" transform="translate(-42.66 -54.45)"/><path class="l" d="M90.47,142.69c0.77,26.81,28.47,34.34,34,36s34.6,10.6,56.3,14.43l-79.43-79.43C94.59,120.61,90.12,130.48,90.47,142.69Z" transform="translate(-42.66 -54.45)"/><path class="i" d="M162.08,124.43c-6-11.11-13.15-19.53-31.53-21.83-10-1.25-21.24,2.8-29.26,11.08l79.43,79.43-4.09-19.4S168.08,135.54,162.08,124.43Z" transform="translate(-42.66 -54.45)"/><circle class="a" cx="128.47" cy="140.6" r="29.49" transform="translate(-104.45 77.58) rotate(-45)"/><path class="l" d="M153.22,151.38a0.43,0.43,0,0,0-.54-0.49c-0.53,0-1.05,0-1.58,0a0.81,0.81,0,0,1-.81-0.81q0-9.49,0-19c0-.24,0-0.48,0-0.72s0-.32-0.16-0.35c-0.48-.08-0.29-0.32-0.13-0.53a1.71,1.71,0,0,0-2.58-2.22,1.62,1.62,0,0,0-.24,2.2c0.08,0.14.15,0.29,0.26,0.49a0.48,0.48,0,0,0-.59.61c0,0.38,0,.77,0,1.15s-0.11.59-.57,0.48c-1.76-.45-3.56-0.67-5.33-1a12.81,12.81,0,0,0-1.28-.12c-0.15,0-.32,0-0.33.17,0,0.57,0,1.14,0,1.72a0.38,0.38,0,0,0,.44.28,23.77,23.77,0,0,1,3.25.5c1.11,0.16,2.2.44,3.29,0.66a0.6,0.6,0,0,1,.53.7c0,1.29,0,2.19,0,3.29,0,0.77-.17.83-1,0.61a28.79,28.79,0,0,0-4.75-.9c-2.23-.23-1.76-0.59-1.82,1.25,0,0.07,0,.14,0,0.21a0.44,0.44,0,0,0,.49.55,32.41,32.41,0,0,1,3.51.53,13.83,13.83,0,0,1,2.81.58c0.44,0.15.72,0,.72,0.76s-0.06,1.49-.06,2.36,0.11,1.13-.41,1c-1.1-.22-2.21-0.39-3.3-0.6-1.59-.32-3.2-0.52-4.81-0.72-1-.13-1-0.07-1-1.07q0-7.2,0-14.4a1,1,0,0,0-.15-0.87l-0.57-.05a2.46,2.46,0,0,1,.29-0.4,1.75,1.75,0,0,0,.15-2.06,1.71,1.71,0,0,0-1.88-.71,1.65,1.65,0,0,0-.91,2.68c0.21,0.25.46,0.45-.12,0.5-0.28,0-.21.28-0.22,0.45,0,0.55,0,1.1,0,1.65a0.52,0.52,0,0,1-.67.64,66.35,66.35,0,0,0-7.08-.13c-1.46,0-1.46-.33-1.46,1.51,0,0.56.2,0.67,0.71,0.66,1.69,0,3.39,0,5.08,0a24.12,24.12,0,0,1,2.86.12c0.52,0.07.46,0.28,0.46,1.18s0,1.63,0,2.45,0.07,1.17-.49,1.11a68,68,0,0,0-7.15-.13c-1.62,0-1.45-.37-1.48,1.56,0,0.47.15,0.62,0.66,0.6,1.37,0,2.74-.08,4.11,0s2.58,0,3.87.12a0.67,0.67,0,0,1,.58.68c0,0.89,0,1.79,0,2.68s0,0.86-.82.83q-4.83-.19-9.66,0c-0.24,0-.47,0-0.71,0a1.21,1.21,0,0,1-.08-0.76q0-6.92,0-13.85c0-.59.16-1.7-0.36-1.7,0.07-.15.15-0.3,0.21-0.45a1.72,1.72,0,0,0-.5-2.06,1.88,1.88,0,0,0-2.14.05,1.83,1.83,0,0,0-.42,2.15c0.12,0.26.87,0.63-.1,0.79a0.5,0.5,0,0,0-.09.46c0,0.62,0,1.25,0,1.87a0.69,0.69,0,0,1-.62.73c-1.11.13-2.22,0.28-3.33,0.46-1.71.28-3.43,0.56-5.12,1-0.44.1-.63,0-0.61-0.5s0-.81,0-1.22c0-.16.06-0.4-0.13-0.44-0.52-.1-0.31-0.31-0.13-0.57a1.69,1.69,0,0,0-.56-2.4,1.64,1.64,0,0,0-2.34.61,1.91,1.91,0,0,0,.33,2.24c-0.63,0-.61.42-0.61,0.84,0,5,0,19.8,0,19.8a0.35,0.35,0,0,1-.35.35h-1.74a0.52,0.52,0,0,0-.52.52v2a0.45,0.45,0,0,0,.45.45H109a0.45,0.45,0,0,0,.45-0.45v-2.52a0.35,0.35,0,0,1,.24-0.33c0.61-.2,2.2-0.5,2.57-0.59a57.86,57.86,0,0,1,6.49-1.05c2.08-.26,4.18-0.38,6.28-0.5a79.28,79.28,0,0,1,15.21.84,60.89,60.89,0,0,1,6.1,1.17,0.52,0.52,0,0,1,.49.61c0,0.84,0,1.67,0,2.51a0.26,0.26,0,0,0,.3.32H153a0.19,0.19,0,0,0,.2-0.18v0C153.22,152.9,153.21,152.14,153.22,151.38Z" transform="translate(-42.66 -54.45)"/><path class="a" d="M119.14,135.29c0,0.57,0,1.15,0,1.72a0.49,0.49,0,0,1-.5.61q-2.65.37-5.3,0.8c-1,.17-2,0.38-3,0.6-0.78.17-.86,0.13-0.86-0.68,0-1,0-2.05,0-3.08a0.76,0.76,0,0,1,.73-0.91c1-.2,2-0.45,3-0.62,1.76-.29,3.53-0.52,5.29-0.81,0.48-.08.67,0,0.65,0.52S119.14,134.67,119.14,135.29Z" transform="translate(-42.66 -54.45)"/><path class="a" d="M119.14,141.85c0,0.52,0,1,0,1.57a0.49,0.49,0,0,1-.55.57c-2.61.26-5.18,0.71-7.75,1.21-1.57.31-1.34,0.48-1.36-1.05,0-.69,0-1.39,0-2.07a0.69,0.69,0,0,1,.64-0.84c1-.22,2-0.47,3.07-0.64,1.74-.29,3.48-0.53,5.22-0.8,0.7-.11.73-0.09,0.74,0.62C119.15,140.9,119.14,141.37,119.14,141.85Z" transform="translate(-42.66 -54.45)"/><path class="a" d="M254,174.46c11.11-6,19.53-13.15,21.83-31.53,1.25-10-2.8-21.24-11.08-29.26L185.36,193.1l19.4-4.09S242.94,180.46,254,174.46Z" transform="translate(-42.66 -54.45)"/><path class="m" d="M235.79,102.85c-26.81.77-34.34,28.47-36,34s-10.6,34.6-14.43,56.3l79.43-79.43C257.87,107,248,102.5,235.79,102.85Z" transform="translate(-42.66 -54.45)"/><path class="g" d="M254,174.46c11.11-6,19.53-13.15,21.83-31.53,1.25-10-2.8-21.24-11.08-29.26L185.36,193.1l19.4-4.09S242.94,180.46,254,174.46Z" transform="translate(-42.66 -54.45)"/><circle class="a" cx="237.88" cy="140.85" r="29.49" transform="translate(-72.58 155.02) rotate(-45)"/><path class="m" d="M248.42,122.64c3.37-.32,6.87,1.41,9.33,3.76l1,0.92a12.48,12.48,0,0,1,4.07,9,16.26,16.26,0,0,1-3.64,9.83,0.89,0.89,0,0,1-1.33.1h0l-14.65-15a0.26,0.26,0,0,0-.18-0.08,0.25,0.25,0,0,0-.18.08l-7.47,7.45a2.7,2.7,0,0,1-3.8.14l-0.33-.34a2.4,2.4,0,0,1-.65-1.86,3.41,3.41,0,0,1,1.81-2.7,23.1,23.1,0,0,0,6.23-6.39,8.46,8.46,0,0,1,2.11-2.17C244.7,122.45,246.64,122.81,248.42,122.64Z" transform="translate(-42.66 -54.45)"/><path class="a" d="M227,122.82a12.2,12.2,0,0,1,8.94,3.56h0l1.25,1.13a0.6,0.6,0,0,1,0,.88L235,131a6.44,6.44,0,0,1-1.07,1l-2.83,2.17a3.48,3.48,0,0,0-1.07,2.27,2.92,2.92,0,0,0,.8,2.24l0.33,0.34a3.21,3.21,0,0,0,4.53-.13l6.85-6.84a0.6,0.6,0,0,1,.86,0l14,14.42a5.41,5.41,0,0,1,.84,2,3,3,0,0,1-.79,2c-1.17,1.34-3.64.66-4.16,0.16L243.2,140.4a0.25,0.25,0,0,0-.36.36L253,151a2.79,2.79,0,0,1,0,3.94,3.5,3.5,0,0,1-4.49.23l-10.31-10.06a0.25,0.25,0,1,0-.35.36l10.31,10.06h0l0.13,0.13A2.54,2.54,0,0,1,249,158a2.89,2.89,0,0,1-2.11,2.48,2.6,2.6,0,0,1-2.93-.66l0,0a1,1,0,0,1-.18-0.26,3.62,3.62,0,0,0-.73-1.1,3.66,3.66,0,0,0-3-1.09,0.6,0.6,0,0,1-.66-0.7,3.7,3.7,0,0,0-4-4.35,0.6,0.6,0,0,1-.66-0.71,3.66,3.66,0,0,0-4-4.34,0.6,0.6,0,0,1-.66-0.71,3.73,3.73,0,0,0,.06-0.6,3.7,3.7,0,0,0-6.28-2.72l-3.4,3.29a3.68,3.68,0,0,0-.56.7,0.61,0.61,0,0,1-1,.09l-2-2.21h0a12.44,12.44,0,0,1,.12-17.57l1-1A13.09,13.09,0,0,1,227,122.82Z" transform="translate(-42.66 -54.45)"/><path class="g" d="M227,122.82a12.2,12.2,0,0,1,8.94,3.56h0l1.25,1.13a0.6,0.6,0,0,1,0,.88L235,131a6.44,6.44,0,0,1-1.07,1l-2.83,2.17a3.48,3.48,0,0,0-1.07,2.27,2.92,2.92,0,0,0,.8,2.24l0.33,0.34a3.21,3.21,0,0,0,4.53-.13l6.85-6.84a0.6,0.6,0,0,1,.86,0l14,14.42a5.41,5.41,0,0,1,.84,2,3,3,0,0,1-.79,2c-1.17,1.34-3.64.66-4.16,0.16L243.2,140.4a0.25,0.25,0,0,0-.36.36L253,151a2.79,2.79,0,0,1,0,3.94,3.5,3.5,0,0,1-4.49.23l-10.31-10.06a0.25,0.25,0,1,0-.35.36l10.31,10.06h0l0.13,0.13A2.54,2.54,0,0,1,249,158a2.89,2.89,0,0,1-2.11,2.48,2.6,2.6,0,0,1-2.93-.66l0,0a1,1,0,0,1-.18-0.26,3.62,3.62,0,0,0-.73-1.1,3.66,3.66,0,0,0-3-1.09,0.6,0.6,0,0,1-.66-0.7,3.7,3.7,0,0,0-4-4.35,0.6,0.6,0,0,1-.66-0.71,3.66,3.66,0,0,0-4-4.34,0.6,0.6,0,0,1-.66-0.71,3.73,3.73,0,0,0,.06-0.6,3.7,3.7,0,0,0-6.28-2.72l-3.4,3.29a3.68,3.68,0,0,0-.56.7,0.61,0.61,0,0,1-1,.09l-2-2.21h0a12.44,12.44,0,0,1,.12-17.57l1-1A13.09,13.09,0,0,1,227,122.82Z" transform="translate(-42.66 -54.45)"/><path class="m" d="M240.45,157.79a3.16,3.16,0,0,1,2.15,5.43s-4.12,6.23-7.93,1.64a2.57,2.57,0,0,1,.08-2.84l0.13-.13h0S239.6,157.77,240.45,157.79Z" transform="translate(-42.66 -54.45)"/><path class="m" d="M238,153.71a3.07,3.07,0,0,1,0,4.49l-0.06.06c-0.36.4-4.7,5.1-7.89,3.19a2.51,2.51,0,0,1-.9-2.28A3.18,3.18,0,0,1,230,157l0.07-.08C230.54,156.4,235.1,151.36,238,153.71Z" transform="translate(-42.66 -54.45)"/><path class="m" d="M227.58,157.35a2.55,2.55,0,0,1-2.22-1,3.17,3.17,0,0,1,.07-4.47l0.13-.13s3.25-3.66,5.51-4.1h0.05a3.16,3.16,0,0,1,2.26,5.32l-0.23.22C232.39,153.89,229.19,157,227.58,157.35Z" transform="translate(-42.66 -54.45)"/><path class="m" d="M226.43,142.65a3.17,3.17,0,0,1,2.25,1,3.13,3.13,0,0,1,.79,2.62c-0.38,1.42-4.26,5.19-4.26,5.19a3.2,3.2,0,1,1-4.45-4.6s4-4.09,5.62-4.18h0.05Z" transform="translate(-42.66 -54.45)"/><path class="n" d="M47.42,200.42a1.81,1.81,0,1,1-1.69,1.9A1.8,1.8,0,0,1,47.42,200.42Z" transform="translate(-42.66 -54.45)"/><path class="j" d="M53.81,215.13l0.38,2.12-8.1,1.46,0.76,4.21-1.87.34-1.14-6.33Z" transform="translate(-42.66 -54.45)"/><path class="j" d="M55.94,225.66l0.53,2.09-9.82,2.47-0.53-2.09Z" transform="translate(-42.66 -54.45)"/><path class="j" d="M57.35,231.32l0.78,2.33-6.5,5.13L59.91,239l0.78,2.33-10.84-.49L49,238.24Z" transform="translate(-42.66 -54.45)"/><path class="j" d="M62.14,244.7l0.84,2-9.32,3.93-0.84-2Z" transform="translate(-42.66 -54.45)"/><path class="j" d="M62.9,254.47l-6,3.12-1-1.91,9-4.64,1,2-3.67,7.17,5.82-3,1,1.91-9,4.64-1-1.85Z" transform="translate(-42.66 -54.45)"/><path class="j" d="M74.2,267.11a4.74,4.74,0,0,1,.45,4.72l-1.79-1a2.87,2.87,0,0,0-.25-2.7A3.33,3.33,0,0,0,67,271.81a3.41,3.41,0,0,0,1.85,1.4l1-.67-1.48-2.26,1.55-1,2.65,4-3.23,2.12a5.62,5.62,0,0,1-4-2.55A5.24,5.24,0,1,1,74.2,267.11Z" transform="translate(-42.66 -54.45)"/><path class="j" d="M81,286.73l-1.06-1.17L77.2,288l-1.44-1.6,7.52-6.77,3.17,3.52a3.15,3.15,0,0,1-.15,4.71,2.9,2.9,0,0,1-3.71.36l-1.34,4.27-1.65-1.84Zm3.91-2.6-1.51-1.68-2.08,1.87L82.79,286A1.4,1.4,0,1,0,84.86,284.13Z" transform="translate(-42.66 -54.45)"/><path class="j" d="M91.79,288.71L97,293.57l-1.26,1.36-3.68-3.4-1.49,1.62,3.6,3.33L93,297.83l-3.6-3.32-1.59,1.73,3.68,3.4L90.18,301l-5.26-4.86Z" transform="translate(-42.66 -54.45)"/><path class="j" d="M100.44,296.41l5.67,4.38L105,302.25l-4-3.06-1.34,1.74,3.88,3-1.13,1.47-3.88-3L96,305.74l-1.71-1.32Z" transform="translate(-42.66 -54.45)"/><path class="j" d="M109.22,310.69l-1.33-.85-1.95,3.06-1.82-1.16,5.43-8.54,4,2.54a3.15,3.15,0,0,1,1.12,4.58,2.9,2.9,0,0,1-3.48,1.35L111,316.15,109,314.82Zm3.07-3.55-1.91-1.21-1.5,2.36,1.91,1.21A1.4,1.4,0,1,0,112.29,307.14Z" transform="translate(-42.66 -54.45)"/><path class="j" d="M120.19,309.69l6.37,3.27-0.85,1.65-4.46-2.29-1,2,4.36,2.24-0.85,1.65-4.36-2.24L118.34,318l4.46,2.29L121.94,322l-6.37-3.28Z" transform="translate(-42.66 -54.45)"/><path class="j" d="M128.38,321.53a4.44,4.44,0,0,0,2.46,2.48c1.1,0.45,1.84.14,2.06-.39,0.29-.7-0.43-1.27-1.41-2-1.39-1-3.19-2.2-2.33-4.29,0.63-1.56,2.5-2.28,4.71-1.38a5.62,5.62,0,0,1,3.12,2.79l-1.71,1a4.32,4.32,0,0,0-2.27-2.12c-0.9-.37-1.54-0.17-1.77.39s0.45,1.15,1.43,1.84c1.4,1,3.18,2.24,2.34,4.32-0.7,1.72-2.45,2.51-5,1.48a5.83,5.83,0,0,1-3.37-3.11Z" transform="translate(-42.66 -54.45)"/><path class="j" d="M146.56,326.69L142,325.33l-1.21,4.07-2.07-.61,2.88-9.7,2.07,0.61-1.13,3.81,4.58,1.36,1.13-3.81,2.08,0.62-2.88,9.7-2.08-.62Z" transform="translate(-42.66 -54.45)"/><path class="j" d="M154.9,322.75l7,1.37-0.36,1.82-4.92-1-0.42,2.16,4.81,0.94-0.36,1.82-4.81-.94-0.45,2.31,4.92,1L160,334.06l-7-1.37Z" transform="translate(-42.66 -54.45)"/><path class="j" d="M166.26,324.79l4,0.39c3.16,0.31,5.15,2.53,4.86,5.56s-2.68,4.82-5.83,4.51l-4-.38Zm3.18,8.57a3,3,0,0,0,3.46-2.84,3,3,0,0,0-2.85-3.46l-1.83-.18-0.61,6.3Z" transform="translate(-42.66 -54.45)"/><path class="n" d="M186.7,330.74a1.81,1.81,0,1,1,1.87,1.72A1.8,1.8,0,0,1,186.7,330.74Z" transform="translate(-42.66 -54.45)"/><path class="k" d="M201.52,324.54l2.13-.32,1.51,10-2.13.32Z" transform="translate(-42.66 -54.45)"/><path class="k" d="M211.21,326.21l1.54,6.62-2.1.49-2.3-9.86,2.16-.5,6.06,5.32-1.49-6.39,2.1-.49,2.3,9.86-2,.47Z" transform="translate(-42.66 -54.45)"/><path class="k" d="M224.49,321.12l-2.8.95-0.61-1.8,7.65-2.58,0.61,1.8-2.79.94,2.63,7.79-2.06.69Z" transform="translate(-42.66 -54.45)"/><path class="k" d="M232.58,316.14l6.58-2.84,0.73,1.7-4.6,2,0.87,2,4.5-1.94,0.73,1.7-4.5,1.94,0.93,2.16,4.6-2,0.74,1.71-6.58,2.84Z" transform="translate(-42.66 -54.45)"/><path class="k" d="M249.49,315.24l-1.38.76,1.75,3.18-1.89,1-4.88-8.86,4.14-2.29a3.15,3.15,0,0,1,4.55,1.22,2.9,2.9,0,0,1-.49,3.7l3.85,2.28L253,317.45Zm-1.64-4.39-2,1.09,1.35,2.45,2-1.09A1.4,1.4,0,1,0,247.85,310.84Z" transform="translate(-42.66 -54.45)"/><path class="k" d="M252.85,305.86l2-1.39,6.71,4.84-2.09-8,2-1.39,2.5,10.55L261.8,312Z" transform="translate(-42.66 -54.45)"/><path class="k" d="M264.41,297.64l5.5-4.59,1.19,1.42-3.85,3.21,1.41,1.69,3.76-3.14,1.19,1.42-3.76,3.14,1.51,1.81,3.84-3.21,1.2,1.43-5.5,4.59Z" transform="translate(-42.66 -54.45)"/><path class="k" d="M277,290.92l4.84,4.78-1.51,1.53-7.2-7.12,1.56-1.57,8,1.27L278,285.21l1.51-1.53,7.2,7.11-1.46,1.48Z" transform="translate(-42.66 -54.45)"/><path class="k" d="M285.56,279.52l-1.87,2.3-1.47-1.2,5.09-6.27,1.47,1.2-1.86,2.29,6.39,5.19L292,284.71Z" transform="translate(-42.66 -54.45)"/><path class="k" d="M289.74,271l1.24-1.77,8.3,5.81L298,276.76Z" transform="translate(-42.66 -54.45)"/><path class="k" d="M295.95,261.05a5.24,5.24,0,1,1,1.85,7.21A5.09,5.09,0,0,1,295.95,261.05Zm1.65,1a3.33,3.33,0,1,0,4.43-1A3.06,3.06,0,0,0,297.6,262Z" transform="translate(-42.66 -54.45)"/><path class="k" d="M304.56,252.24l6.2,2.79-0.89,2-9.23-4.16,0.91-2,7.9-1.58-6-2.69,0.89-2,9.23,4.16-0.85,1.9Z" transform="translate(-42.66 -54.45)"/><path class="n" d="M312.92,235.21a1.81,1.81,0,1,1,2.23-1.22A1.8,1.8,0,0,1,312.92,235.21Z" transform="translate(-42.66 -54.45)"/><path class="l" d="M42.66,189.86l0.3-4.71a3.24,3.24,0,1,1,6.46.41l-0.17,2.56,3.61,0.23-0.14,2.14Zm2.13-4.3-0.15,2.28L47.41,188l0.15-2.28A1.39,1.39,0,1,0,44.78,185.56Z" transform="translate(-42.66 -54.45)"/><path class="l" d="M50.74,174.09l-0.25,1.55,3.57,0.57-0.34,2.12-10-1.59,0.75-4.66a3.14,3.14,0,0,1,3.75-2.83,2.89,2.89,0,0,1,2.61,2.65L55,170.27l-0.39,2.43Zm-4.46-1.4-0.36,2.23,2.75,0.44L49,173.12A1.4,1.4,0,1,0,46.28,172.68Z" transform="translate(-42.66 -54.45)"/><path class="l" d="M46.17,163.52l1.77-6.92,1.79,0.46-1.24,4.83,2.12,0.54,1.21-4.73,1.79,0.46-1.21,4.73,2.27,0.58,1.24-4.83,1.8,0.46L55.94,166Z" transform="translate(-42.66 -54.45)"/><path class="l" d="M49.14,152.44l0.83-2.3h8.24l-6.36-5.24,0.83-2.3,8.18,7.06-0.91,2.53Z" transform="translate(-42.66 -54.45)"/><path class="l" d="M54.53,138.28l3-6.46,1.67,0.78-2.12,4.52,2,0.93,2.08-4.42,1.67,0.78-2.08,4.42,2.12,1L65,135.31l1.69,0.79-3,6.46Z" transform="translate(-42.66 -54.45)"/><path class="l" d="M64,126.83l5.82,3.46-1.1,1.85L60.09,127l1.13-1.9,8-.68-5.62-3.34,1.1-1.85,8.67,5.16-1.06,1.78Z" transform="translate(-42.66 -54.45)"/><path class="l" d="M70.8,113.73l-1.75,2.38L67.54,115l4.76-6.48,1.52,1.12L72.08,112l6.6,4.85-1.28,1.74Z" transform="translate(-42.66 -54.45)"/><path class="l" d="M75.47,104.67L76.86,103l7.67,6.54-1.39,1.63Z" transform="translate(-42.66 -54.45)"/><path class="l" d="M83.83,95.32a5.22,5.22,0,1,1,0,7.41A5.07,5.07,0,0,1,83.83,95.32Zm1.34,1.35a3.32,3.32,0,1,0,4.51.18A3.05,3.05,0,0,0,85.17,96.67Z" transform="translate(-42.66 -54.45)"/><path class="l" d="M95.44,89.43l4.23,5.29L98,96.06l-6.3-7.87,1.72-1.38L101.15,89l-4.08-5.1,1.68-1.34,6.3,7.87-1.62,1.29Z" transform="translate(-42.66 -54.45)"/><path class="n" d="M112,79.58a1.8,1.8,0,1,1,2.46.61A1.79,1.79,0,0,1,112,79.58Z" transform="translate(-42.66 -54.45)"/><path class="m" d="M123.83,67.54l4.87-2.11a2.61,2.61,0,0,1,3.69,1.21,2.24,2.24,0,0,1-.68,2.81A2.44,2.44,0,0,1,134.46,71a2.66,2.66,0,0,1-1.61,3.66l-5,2.17Zm6,1.79a1.11,1.11,0,1,0-.88-2l-2.47,1.07,0.88,2Zm1.74,3.83a1.16,1.16,0,0,0,.72-1.61,1.18,1.18,0,0,0-1.66-.57l-2.54,1.1,0.94,2.18Z" transform="translate(-42.66 -54.45)"/><path class="m" d="M142.1,67.36l-1.5.48,1.11,3.44-2,.66-3.09-9.6,4.49-1.44a3.14,3.14,0,0,1,4.22,2.05,2.89,2.89,0,0,1-1.18,3.52l3.33,3-2.34.75Zm-0.77-4.61-2.14.69L140,66.08l2.14-.69A1.4,1.4,0,1,0,141.33,62.74Z" transform="translate(-42.66 -54.45)"/><path class="m" d="M154.18,57.28a5.22,5.22,0,1,1-4.08,6.19A5.07,5.07,0,0,1,154.18,57.28Zm0.39,1.86a3.32,3.32,0,1,0,3.68,2.61A3,3,0,0,0,154.58,59.15Z" transform="translate(-42.66 -54.45)"/><path class="m" d="M171.35,63.29l-4.48.48-0.45,1.8-2.35.25,2.81-10.44,2.68-.28,4.93,9.62-2.33.25Zm-4.11-1.43,3.32-.35-2.14-4.43Z" transform="translate(-42.66 -54.45)"/><path class="m" d="M178.2,54.46h4c3.16,0,5.36,2,5.37,5s-2.18,5-5.33,5h-4Zm4,8.18a3,3,0,0,0,3.15-3.15,3,3,0,0,0-3.17-3.15h-1.83l0,6.3h1.83Z" transform="translate(-42.66 -54.45)"/><path class="m" d="M192.62,61.78a4.42,4.42,0,0,0,3.06,1.66c1.17,0.11,1.8-.39,1.85-1,0.07-.75-0.78-1.09-1.91-1.47-1.61-.53-3.67-1.18-3.46-3.43,0.16-1.67,1.73-2.89,4.1-2.67A5.61,5.61,0,0,1,200,56.68l-1.34,1.45a4.32,4.32,0,0,0-2.77-1.37c-1-.09-1.51.28-1.57,0.88s0.76,1,1.89,1.35c1.62,0.53,3.68,1.23,3.47,3.46-0.17,1.84-1.62,3.1-4.33,2.84a5.81,5.81,0,0,1-4.11-2Z" transform="translate(-42.66 -54.45)"/><path class="m" d="M204.09,61a5.1,5.1,0,0,1,6.18-4.12A4.66,4.66,0,0,1,214,60.16l-2,.54a2.76,2.76,0,0,0-2.13-1.9,3.32,3.32,0,0,0-1.25,6.5,2.73,2.73,0,0,0,2.68-1L213,65.55a4.68,4.68,0,0,1-4.69,1.62A5.1,5.1,0,0,1,204.09,61Z" transform="translate(-42.66 -54.45)"/><path class="m" d="M223,68.93l-4.32-1.28-1.1,1.49-2.26-.67L222,59.91l2.58,0.77,0.85,10.77-2.25-.67ZM219.79,66l3.2,1-0.28-4.91Z" transform="translate(-42.66 -54.45)"/><path class="m" d="M232.64,63.41l2,0.8-3,7.61,4,1.58-0.7,1.75-6-2.38Z" transform="translate(-42.66 -54.45)"/><path class="m" d="M243.26,67.9l6.38,3.2-0.83,1.65-4.46-2.24-1,2,4.36,2.19-0.83,1.65-4.36-2.19-1,2.09L246,78.44l-0.83,1.66-6.37-3.2Z" transform="translate(-42.66 -54.45)"/><path class="m" d="M257.29,81.44a5.11,5.11,0,0,1,7.33-1.23,4.65,4.65,0,0,1,2.1,4.48l-2-.32a2.76,2.76,0,0,0-1.16-2.61,3.32,3.32,0,0,0-3.8,5.42,2.73,2.73,0,0,0,2.85.21l1,1.79a4.68,4.68,0,0,1-4.94-.44A5.1,5.1,0,0,1,257.29,81.44Z" transform="translate(-42.66 -54.45)"/><path class="m" d="M275.76,89a5.22,5.22,0,1,1-7.39.47A5.07,5.07,0,0,1,275.76,89Zm-1.25,1.44a3.32,3.32,0,1,0,.14,4.51A3,3,0,0,0,274.5,90.42Z" transform="translate(-42.66 -54.45)"/><path class="m" d="M283.33,96.31l1.47,1.56-6,5.62,2.92,3.1-1.37,1.3-4.4-4.66Z" transform="translate(-42.66 -54.45)"/><path class="m" d="M291.1,104.87l1.34,1.68L286,111.66l2.66,3.33-1.48,1.18-4-5Z" transform="translate(-42.66 -54.45)"/><path class="m" d="M294.75,124l-2.48-3.76-1.8.43-1.3-2,10.57-2.29,1.48,2.25-6.29,8.8-1.29-2Zm-0.61-4.31,1.84,2.79,2.95-3.93Z" transform="translate(-42.66 -54.45)"/><path class="m" d="M305.69,126l2.47,4.69a2.61,2.61,0,0,1-.92,3.76,2.24,2.24,0,0,1-2.86-.46,2.44,2.44,0,0,1-1.29,2.87,2.65,2.65,0,0,1-3.77-1.33l-2.55-4.84Zm-5,8.19a1.16,1.16,0,0,0,1.66.59,1.18,1.18,0,0,0,.44-1.7l-1.29-2.45-2.1,1.1Zm3.68-2a1.11,1.11,0,1,0,2-1l-1.25-2.38-2,1Z" transform="translate(-42.66 -54.45)"/><path class="m" d="M313.84,142.7a5.22,5.22,0,1,1-6.8-2.94A5.07,5.07,0,0,1,313.84,142.7Zm-1.77.71a3.32,3.32,0,1,0-1.93,4.08A3,3,0,0,0,312.07,143.41Z" transform="translate(-42.66 -54.45)"/><path class="m" d="M312.11,158.09l-0.43-1.51-3.47,1-0.59-2.06,9.7-2.77,1.3,4.54a3.14,3.14,0,0,1-2.19,4.15,2.9,2.9,0,0,1-3.49-1.3l-3.07,3.24L309.18,161Zm4.63-.62-0.62-2.17-2.67.77,0.62,2.17A1.4,1.4,0,1,0,316.75,157.47Z" transform="translate(-42.66 -54.45)"/><path class="m" d="M313.7,173.57l-0.81-4.44-1.83-.31-0.42-2.32,10.63,2,0.48,2.65-9.23,5.63-0.42-2.31Zm1.13-4.2,0.6,3.29,4.26-2.46Z" transform="translate(-42.66 -54.45)"/><path class="m" d="M321.19,181.13l-0.27-2.94,1.88-.17,0.74,8-1.88.17-0.27-2.92-8.16.75-0.2-2.15Z" transform="translate(-42.66 -54.45)"/><path class="m" d="M323.72,191l0,2.15-10.08.21,0-2.15Z" transform="translate(-42.66 -54.45)"/><path class="m" d="M323.66,203.52a5.22,5.22,0,1,1-4.88-5.57A5.07,5.07,0,0,1,323.66,203.52Zm-1.9-.12a3.32,3.32,0,1,0-3.49,2.86A3,3,0,0,0,321.76,203.4Z" transform="translate(-42.66 -54.45)"/><path class="m" d="M318.9,215.68l-6.68-1.14,0.36-2.12,9.95,1.7-0.37,2.18-7.23,3.51,6.44,1.1L321,223l-9.95-1.7,0.35-2Z" transform="translate(-42.66 -54.45)"/></svg>