<svg width="93" height="94" viewBox="0 0 93 94" fill="none" xmlns="http://www.w3.org/2000/svg">
<g id="&#209;&#128;&#208;&#190;&#208;&#186;&#208;&#181;&#209;&#130;&#208;&#176;">
<path id="Vector 1" d="M16.2837 69.8813C13.5366 73.3023 15.0615 79.8791 15.541 80.279C16.0204 80.679 22.2112 80.9467 25.0019 77.97" stroke="#F3C623" stroke-width="6"/>
<path id="Union" fill-rule="evenodd" clip-rule="evenodd" d="M28.5354 9.8184C27.3751 8.63573 25.4937 8.63573 24.3334 9.8184C23.173 11.0011 23.173 12.9186 24.3334 14.1012L25.2109 14.9957L24.3644 15.8293C23.1839 16.9919 23.151 18.9091 24.2908 20.1115C25.4307 21.3139 27.3118 21.3462 28.4923 20.1837L29.4123 19.2777L30.3707 20.2545C31.531 21.4372 33.4124 21.4372 34.5727 20.2545C35.7331 19.0719 35.7331 17.1544 34.5727 15.9717L33.6865 15.0685L34.6324 14.137C35.813 12.9744 35.8459 11.0573 34.706 9.85483C33.5661 8.6524 31.6851 8.62008 30.5045 9.78264L29.4852 10.7864L28.5354 9.8184Z" fill="#F3C623"/>
<path id="Union_2" fill-rule="evenodd" clip-rule="evenodd" d="M52.2015 0.887003C51.0411 -0.295668 49.1598 -0.295668 47.9994 0.887003C46.8391 2.06967 46.8391 3.98716 47.9994 5.16983L48.877 6.06428L48.0305 6.89793C46.85 8.06048 46.817 9.97768 47.9569 11.1801C49.0968 12.3825 50.9779 12.4148 52.1584 11.2523L53.0783 10.3463L54.0367 11.3232C55.1971 12.5058 57.0784 12.5058 58.2388 11.3232C59.3992 10.1405 59.3992 8.22299 58.2388 7.04032L57.3526 6.13711L58.2985 5.2056C59.479 4.04305 59.512 2.12585 58.3721 0.923431C57.2322 -0.278992 55.3511 -0.311312 54.1706 0.851244L53.1513 1.85505L52.2015 0.887003Z" fill="#F3C623"/>
<path id="Union_3" fill-rule="evenodd" clip-rule="evenodd" d="M85.5008 31.2537C84.3405 30.0711 82.4591 30.0711 81.2988 31.2537C80.1384 32.4364 80.1384 34.3539 81.2988 35.5366L82.1764 36.431L81.3298 37.2647C80.1493 38.4272 80.1164 40.3444 81.2562 41.5468C82.3961 42.7493 84.2772 42.7816 85.4577 41.619L86.3777 40.7131L87.3361 41.6899C88.4964 42.8726 90.3778 42.8726 91.5381 41.6899C92.6985 40.5072 92.6985 38.5897 91.5381 37.4071L90.652 36.5038L91.5979 35.5723C92.7784 34.4098 92.8113 32.4926 91.6714 31.2902C90.5315 30.0877 88.6505 30.0554 87.47 31.218L86.4506 32.2218L85.5008 31.2537Z" fill="#F3C623"/>
<path id="Union_4" fill-rule="evenodd" clip-rule="evenodd" d="M76.7378 54.4754C75.5775 53.2928 73.6961 53.2928 72.5358 54.4754C71.3754 55.6581 71.3754 57.5756 72.5358 58.7583L73.4134 59.6527L72.5668 60.4864C71.3863 61.6489 71.3534 63.5661 72.4932 64.7685C73.6331 65.971 75.5142 66.0033 76.6947 64.8407L77.6147 63.9348L78.5731 64.9116C79.7334 66.0943 81.6148 66.0943 82.7751 64.9116C83.9355 63.7289 83.9355 61.8114 82.7751 60.6288L81.889 59.7255L82.8349 58.794C84.0154 57.6315 84.0483 55.7143 82.9084 54.5119C81.7685 53.3094 79.8875 53.2771 78.707 54.4397L77.6876 55.4435L76.7378 54.4754Z" fill="#F3C623"/>
<path id="Vector" d="M41.5308 50.9128C44.3327 53.5592 48.7229 53.3889 51.3194 50.5331C53.9158 47.6773 53.7487 43.2028 50.9468 40.5564C48.1449 37.91 43.7547 38.0803 41.1582 40.9361C38.5617 43.7919 38.7288 48.2665 41.5308 50.9128ZM47.4158 44.4401C47.7526 44.7582 47.9517 45.1997 47.9692 45.6675C47.9866 46.1352 47.8211 46.5909 47.5089 46.9342C47.1968 47.2776 46.7636 47.4805 46.3046 47.4983C45.8457 47.5161 45.3986 47.3473 45.0618 47.0292C44.7249 46.711 44.5259 46.2695 44.5084 45.8017C44.4909 45.334 44.6565 44.8783 44.9686 44.535C45.2808 44.1917 45.714 43.9888 46.1729 43.971C46.6319 43.9532 47.0789 44.1219 47.4158 44.4401ZM59.6986 58.221C67.9239 49.0547 71.2016 37.4677 70.6122 21.6846C70.5993 21.337 70.5194 20.9954 70.3769 20.6794C70.2345 20.3633 70.0324 20.079 69.7821 19.8426C69.5318 19.6062 69.2382 19.4223 68.9182 19.3016C68.5982 19.1809 68.2579 19.1256 67.9169 19.139C52.4265 19.7399 41.3424 23.949 33.0002 33.0049C30.0234 32.025 26.834 31.9316 23.8068 32.7358C20.7797 33.5399 18.0408 35.2082 15.912 37.5444L13.558 40.1335C11.2864 42.632 11.4326 46.5478 13.884 48.8631L20.5141 55.1251C20.1743 56.065 19.84 57.0246 19.5116 58.009L12.5363 62.1911C12.1863 62.3999 11.8892 62.6894 11.6688 63.0364C11.4485 63.3835 11.311 63.7783 11.2675 64.1892C11.224 64.6002 11.2756 65.0158 11.4183 65.4028C11.5609 65.7897 11.7906 66.1372 12.0888 66.4173L13.5927 67.8376C16.1661 70.4605 23.0655 76.4832 27.0968 80.592L28.6007 82.0124C28.8981 82.2916 29.2553 82.4965 29.6439 82.6107C30.0325 82.7248 30.4418 82.7452 30.8395 82.6702C31.2371 82.5951 31.6122 82.4267 31.9349 82.1783C32.2576 81.9299 32.5191 81.6082 32.6987 81.2389L36.2599 73.8322C37.198 73.4237 38.1114 73.0111 39.005 72.5942L45.6352 78.8563C48.0866 81.1715 51.9286 81.0225 54.2002 78.524L56.5542 75.9349C58.6788 73.5939 60.1034 70.6832 60.6604 67.5452C61.2174 64.4072 60.8838 61.1723 59.6986 58.221ZM18.1804 64.952L21.2965 63.0827L31.163 72.4014L29.5711 75.7103L18.1804 64.952ZM24.6421 59.0239C25.6464 56.0422 26.7975 53.1139 28.091 50.2503L43.198 64.5186C40.4963 66.0537 37.7189 67.4461 34.8769 68.6905L24.6421 59.0239ZM65.4781 24.5738C65.5247 30.5467 64.9063 35.7761 63.5788 40.456L50.0848 27.7112C54.5623 26.0064 59.6312 24.9805 65.4781 24.5738ZM44.9661 30.0954L61.6355 45.8392C58.7969 52.0564 54.2676 57.1628 47.7858 61.633L30.5677 45.3709C34.4483 38.4439 39.097 33.4503 44.9661 30.0954ZM17.415 44.9794C17.249 44.8189 17.1512 44.5986 17.1425 44.3656C17.1338 44.1325 17.2149 43.9053 17.3684 43.7324L19.7224 41.1432C22.2153 38.4014 25.7769 37.1742 29.2623 37.5835C26.7762 41.0969 24.5685 45.1765 22.5743 49.8523L17.415 44.9794ZM50.3921 74.9225C50.072 75.2747 49.514 75.2963 49.1685 74.97L44.0092 70.0971C48.432 67.715 52.2553 65.1613 55.5035 62.3677C55.8462 64.1328 55.7751 65.9554 55.296 67.6872C54.8168 69.4189 53.9431 71.0109 52.7461 72.3334L50.3921 74.9225Z" fill="#30358C"/>
</g>
</svg>
