<svg width="114" height="114" viewBox="0 0 114 114" fill="none" xmlns="http://www.w3.org/2000/svg">
<g id="Sun Horizon" clip-path="url(#clip0_124_14)">
<path id="Vector" d="M41.3219 26.2748L37.9135 18.0463" stroke="#F3C623" stroke-width="8" stroke-linecap="round" stroke-linejoin="round"/>
<path id="Vector_2" d="M19.1498 48.4469L10.9213 45.0385" stroke="#F3C623" stroke-width="8" stroke-linecap="round" stroke-linejoin="round"/>
<path id="Vector_3" d="M94.8502 48.4469L103.079 45.0385" stroke="#F3C623" stroke-width="8" stroke-linecap="round" stroke-linejoin="round"/>
<path id="Vector_4" d="M72.6781 26.2748L76.0865 18.0463" stroke="#F3C623" stroke-width="8" stroke-linecap="round" stroke-linejoin="round"/>
<path id="Vector_5" d="M31.2418 71.2501C30.1485 67.2836 29.986 63.1181 30.7671 59.0785C31.5481 55.0388 33.2515 51.2341 35.7445 47.961C38.2376 44.6878 41.4529 42.0346 45.1398 40.2082C48.8266 38.3819 52.8855 37.4316 57 37.4316C61.1144 37.4316 65.1733 38.3819 68.8602 40.2082C72.5471 42.0346 75.7624 44.6878 78.2554 47.9609C80.7485 51.2341 82.4519 55.0388 83.2329 59.0785C84.014 63.1181 83.8515 67.2836 82.7582 71.2501" stroke="#F3C623" stroke-width="8" stroke-linecap="round" stroke-linejoin="round"/>
<path id="Vector_6" d="M106.875 71.25H7.125" stroke="#30358C" stroke-width="8" stroke-linecap="round" stroke-linejoin="round"/>
<path id="Vector_7" d="M92.625 89.0625H21.375" stroke="#30358C" stroke-width="8" stroke-linecap="round" stroke-linejoin="round"/>
</g>
<defs>
<clipPath id="clip0_124_14">
<rect width="114" height="114" fill="white"/>
</clipPath>
</defs>
</svg>
